<mxfile host="app.diagrams.net" modified="2024-05-13T22:56:40.349Z" agent="Mozilla/5.0 (Macintosh; Intel Mac OS X 10_15_7) AppleWebKit/537.36 (KHTML, like Gecko) Chrome/124.0.0.0 Safari/537.36" etag="IJUR1msmLZi89znq1DcB" version="23.1.1" type="device">
  <diagram name="Page-1" id="VjmhCGZF4VBOqAKGsLk0">
    <mxGraphModel dx="2314" dy="1064" grid="1" gridSize="10" guides="1" tooltips="1" connect="1" arrows="1" fold="1" page="1" pageScale="1" pageWidth="850" pageHeight="1100" math="0" shadow="0">
      <root>
        <mxCell id="0" />
        <mxCell id="1" parent="0" />
        <mxCell id="SyVLrARbICTGP_gaorv4-4" style="edgeStyle=orthogonalEdgeStyle;rounded=0;orthogonalLoop=1;jettySize=auto;html=1;" edge="1" parent="1" source="SyVLrARbICTGP_gaorv4-1" target="SyVLrARbICTGP_gaorv4-2">
          <mxGeometry relative="1" as="geometry" />
        </mxCell>
        <mxCell id="SyVLrARbICTGP_gaorv4-6" value="Extract" style="edgeLabel;html=1;align=center;verticalAlign=middle;resizable=0;points=[];" vertex="1" connectable="0" parent="SyVLrARbICTGP_gaorv4-4">
          <mxGeometry x="0.2462" y="-4" relative="1" as="geometry">
            <mxPoint x="-11" y="6" as="offset" />
          </mxGeometry>
        </mxCell>
        <mxCell id="SyVLrARbICTGP_gaorv4-1" value="&lt;b&gt;Square API&lt;/b&gt;" style="rounded=0;whiteSpace=wrap;html=1;" vertex="1" parent="1">
          <mxGeometry x="70" y="270" width="150" height="100" as="geometry" />
        </mxCell>
        <mxCell id="SyVLrARbICTGP_gaorv4-5" style="edgeStyle=orthogonalEdgeStyle;rounded=0;orthogonalLoop=1;jettySize=auto;html=1;" edge="1" parent="1" source="SyVLrARbICTGP_gaorv4-2" target="SyVLrARbICTGP_gaorv4-3">
          <mxGeometry relative="1" as="geometry" />
        </mxCell>
        <mxCell id="SyVLrARbICTGP_gaorv4-2" value="&lt;b&gt;Google Cloud Storage&lt;/b&gt;" style="rounded=0;whiteSpace=wrap;html=1;" vertex="1" parent="1">
          <mxGeometry x="350" y="270" width="150" height="100" as="geometry" />
        </mxCell>
        <mxCell id="SyVLrARbICTGP_gaorv4-3" value="&lt;b&gt;BigQuery&lt;/b&gt;" style="rounded=0;whiteSpace=wrap;html=1;" vertex="1" parent="1">
          <mxGeometry x="630" y="270" width="150" height="100" as="geometry" />
        </mxCell>
        <mxCell id="SyVLrARbICTGP_gaorv4-7" value="Load" style="edgeLabel;html=1;align=center;verticalAlign=middle;resizable=0;points=[];" vertex="1" connectable="0" parent="1">
          <mxGeometry x="570" y="330" as="geometry">
            <mxPoint x="-8" y="-3" as="offset" />
          </mxGeometry>
        </mxCell>
      </root>
    </mxGraphModel>
  </diagram>
</mxfile>
